<?xml version="1.0" encoding="utf-8"?>
<!-- Generator: Adobe Illustrator 18.1.1, SVG Export Plug-In . SVG Version: 6.00 Build 0)  -->
<svg version="1.1" id="Layer_1" xmlns="http://www.w3.org/2000/svg" xmlns:xlink="http://www.w3.org/1999/xlink" x="0px" y="0px"
	 width="66.2px" height="67.2px" viewBox="-594.1 413.4 66.2 67.2" style="enable-background:new -594.1 413.4 66.2 67.2;"
	 xml:space="preserve">
<style type="text/css">
	.st0{stroke:#000000;stroke-miterlimit:10;}
</style>
<g>
	<path class="st0" d="M-539.4,441.8c0.7,2.6,1.1,5.5,1.1,8.4c0,0.3,0,0.7,0,1l3.4,1.3l2.8-2.4l2.2,2.6l-4.3,3.5l-4.4-1.8
		c-0.5,3.9-1.7,7.6-3.4,10.7l0.6-0.8l3.3,1.9l3.2-1.9l1.8,2.9l-4.7,2.9l-5.2-3.1c-4.1,6.3-10.4,10.4-17.5,10.4
		c-7.1,0-13.4-4.1-17.5-10.4l-5.1,3l-4.7-2.9l1.8-2.9l3.2,1.9l3.3-1.9l0.2,0.3c-1.6-3-2.7-6.5-3.1-10.2l-4.3,1.7l-4.3-3.5l2.2-2.6
		l2.8,2.4l3.3-1.3c0-0.4,0-0.7,0-1.1c0-2.9,0.4-5.7,1.1-8.4l-5.6-0.2l-2.4-4.9l3-1.5l1.6,3.3l3.8,0.2l0.1,1.1
		c2.3-6.8,6.8-12.3,12.4-15c0.1-2.1,1.8-3.8,4-3.8h9.3c2.2,0,4,1.8,4,4c0,0.1,0,0.2,0,0.3c5.3,2.9,9.5,8.3,11.6,14.9l0.1-1.5
		l3.8-0.2l1.6-3.3l3,1.5l-2.4,4.9L-539.4,441.8z"/>
	<polygon class="st0" points="-549.3,417.5 -549.8,418.6 -550.4,418.9 -551.9,419.3 -553.1,420.1 -554.7,421 -554.7,420.1 
		-552.8,418.7 -551.5,418.3 -550.3,417.5 -549.6,416.1 -548.2,415.6 -548.6,416.9 	"/>
	<polygon class="st0" points="-568.4,419.3 -569.8,418.9 -570.5,418.6 -571,417.5 -571.7,416.9 -572.1,415.6 -570.7,416.1 
		-570,417.5 -568.8,418.3 -567.4,418.7 -565.6,420.1 -565.6,421 -567.2,420.1 	"/>
</g>
</svg>
